<svg width="115" height="22" viewBox="0 0 115 22" fill="none" xmlns="http://www.w3.org/2000/svg">
<path d="M8.57031 12.2637H3.45703L3.42969 9.44727H7.72266C8.47917 9.44727 9.09896 9.35156 9.58203 9.16016C10.0651 8.95964 10.4251 8.67253 10.6621 8.29883C10.9082 7.91602 11.0312 7.45117 11.0312 6.9043C11.0312 6.28451 10.9128 5.7832 10.6758 5.40039C10.4479 5.01758 10.0879 4.73958 9.5957 4.56641C9.11263 4.39323 8.48828 4.30664 7.72266 4.30664H4.87891V21H0.777344V1.09375H7.72266C8.88021 1.09375 9.91471 1.20312 10.8262 1.42188C11.7467 1.64062 12.526 1.97331 13.1641 2.41992C13.8021 2.86654 14.2897 3.43164 14.627 4.11523C14.9642 4.78971 15.1328 5.5918 15.1328 6.52148C15.1328 7.3418 14.946 8.09831 14.5723 8.79102C14.2077 9.48372 13.6289 10.0488 12.8359 10.4863C12.0521 10.9238 11.0267 11.1654 9.75977 11.2109L8.57031 12.2637ZM8.39258 21H2.33594L3.93555 17.8008H8.39258C9.11263 17.8008 9.70052 17.6868 10.1562 17.459C10.612 17.222 10.9492 16.903 11.168 16.502C11.3867 16.1009 11.4961 15.6406 11.4961 15.1211C11.4961 14.5378 11.3958 14.0319 11.1953 13.6035C11.0039 13.1751 10.694 12.847 10.2656 12.6191C9.83724 12.3822 9.27214 12.2637 8.57031 12.2637H4.61914L4.64648 9.44727H9.56836L10.5117 10.5547C11.724 10.5365 12.6992 10.7507 13.4375 11.1973C14.1849 11.6348 14.7272 12.2044 15.0645 12.9062C15.4108 13.6081 15.584 14.36 15.584 15.1621C15.584 16.4382 15.306 17.5137 14.75 18.3887C14.194 19.2546 13.3783 19.9062 12.3027 20.3438C11.2363 20.7812 9.93294 21 8.39258 21ZM17.7852 13.7539V13.4668C17.7852 12.3822 17.9401 11.3841 18.25 10.4727C18.5599 9.55208 19.0111 8.75456 19.6035 8.08008C20.196 7.4056 20.9251 6.88151 21.791 6.50781C22.6569 6.125 23.6504 5.93359 24.7715 5.93359C25.8926 5.93359 26.8906 6.125 27.7656 6.50781C28.6406 6.88151 29.3743 7.4056 29.9668 8.08008C30.5684 8.75456 31.0241 9.55208 31.334 10.4727C31.6439 11.3841 31.7988 12.3822 31.7988 13.4668V13.7539C31.7988 14.8294 31.6439 15.8275 31.334 16.748C31.0241 17.6595 30.5684 18.457 29.9668 19.1406C29.3743 19.8151 28.6452 20.3392 27.7793 20.7129C26.9134 21.0866 25.9199 21.2734 24.7988 21.2734C23.6777 21.2734 22.6797 21.0866 21.8047 20.7129C20.9388 20.3392 20.2051 19.8151 19.6035 19.1406C19.0111 18.457 18.5599 17.6595 18.25 16.748C17.9401 15.8275 17.7852 14.8294 17.7852 13.7539ZM21.7227 13.4668V13.7539C21.7227 14.3737 21.7773 14.9525 21.8867 15.4902C21.9961 16.028 22.1693 16.502 22.4062 16.9121C22.6523 17.3132 22.9714 17.6276 23.3633 17.8555C23.7552 18.0833 24.2337 18.1973 24.7988 18.1973C25.3457 18.1973 25.8151 18.0833 26.207 17.8555C26.599 17.6276 26.9134 17.3132 27.1504 16.9121C27.3874 16.502 27.5605 16.028 27.6699 15.4902C27.7884 14.9525 27.8477 14.3737 27.8477 13.7539V13.4668C27.8477 12.8652 27.7884 12.3001 27.6699 11.7715C27.5605 11.2337 27.3828 10.7598 27.1367 10.3496C26.8997 9.93034 26.5853 9.60221 26.1934 9.36523C25.8014 9.12826 25.3275 9.00977 24.7715 9.00977C24.2155 9.00977 23.7415 9.12826 23.3496 9.36523C22.9668 9.60221 22.6523 9.93034 22.4062 10.3496C22.1693 10.7598 21.9961 11.2337 21.8867 11.7715C21.7773 12.3001 21.7227 12.8652 21.7227 13.4668ZM41.4648 6.20703V8.99609H32.8516V6.20703H41.4648ZM34.9844 2.55664H38.9219V16.543C38.9219 16.9714 38.9766 17.2995 39.0859 17.5273C39.2044 17.7552 39.3776 17.9147 39.6055 18.0059C39.8333 18.0879 40.1204 18.1289 40.4668 18.1289C40.7129 18.1289 40.9316 18.1198 41.123 18.1016C41.3236 18.0742 41.4922 18.0469 41.6289 18.0195L41.6426 20.918C41.3053 21.0273 40.9408 21.1139 40.5488 21.1777C40.1569 21.2415 39.724 21.2734 39.25 21.2734C38.3841 21.2734 37.6276 21.1322 36.9805 20.8496C36.3424 20.5579 35.8503 20.0931 35.5039 19.4551C35.1576 18.8171 34.9844 17.9785 34.9844 16.9395V2.55664ZM47.9316 17.1719L51.0078 6.20703H53.5098L52.7031 10.5137L49.627 21H47.5352L47.9316 17.1719ZM46.373 6.20703L48.5742 17.1582L48.7793 21H46.3184L42.5723 6.20703H46.373ZM56.3262 16.9805L58.4727 6.20703H62.2871L58.541 21H56.0938L56.3262 16.9805ZM53.8516 6.20703L56.9141 17.0898L57.3379 21H55.2324L52.1562 10.5273L51.377 6.20703H53.8516ZM68.207 9.43359V21H64.2695V6.20703H67.9746L68.207 9.43359ZM72.6641 6.11133L72.5957 9.76172C72.4043 9.73438 72.1719 9.71159 71.8984 9.69336C71.6341 9.66602 71.3926 9.65234 71.1738 9.65234C70.6178 9.65234 70.1348 9.72526 69.7246 9.87109C69.3236 10.0078 68.9863 10.2129 68.7129 10.4863C68.4486 10.7598 68.248 11.0924 68.1113 11.4844C67.9837 11.8763 67.9108 12.3229 67.8926 12.8242L67.0996 12.5781C67.0996 11.6211 67.1953 10.7415 67.3867 9.93945C67.5781 9.12826 67.8561 8.42188 68.2207 7.82031C68.5944 7.21875 69.0501 6.75391 69.5879 6.42578C70.1257 6.09766 70.7409 5.93359 71.4336 5.93359C71.6523 5.93359 71.8757 5.95182 72.1035 5.98828C72.3314 6.01562 72.5182 6.05664 72.6641 6.11133ZM78.6797 6.20703V21H74.7285V6.20703H78.6797ZM74.4824 2.35156C74.4824 1.77734 74.6829 1.30339 75.084 0.929688C75.485 0.55599 76.0228 0.369141 76.6973 0.369141C77.3626 0.369141 77.8958 0.55599 78.2969 0.929688C78.707 1.30339 78.9121 1.77734 78.9121 2.35156C78.9121 2.92578 78.707 3.39974 78.2969 3.77344C77.8958 4.14714 77.3626 4.33398 76.6973 4.33398C76.0228 4.33398 75.485 4.14714 75.084 3.77344C74.6829 3.39974 74.4824 2.92578 74.4824 2.35156ZM89.1797 6.20703V8.99609H80.5664V6.20703H89.1797ZM82.6992 2.55664H86.6367V16.543C86.6367 16.9714 86.6914 17.2995 86.8008 17.5273C86.9193 17.7552 87.0924 17.9147 87.3203 18.0059C87.5482 18.0879 87.8353 18.1289 88.1816 18.1289C88.4277 18.1289 88.6465 18.1198 88.8379 18.1016C89.0384 18.0742 89.207 18.0469 89.3438 18.0195L89.3574 20.918C89.0202 21.0273 88.6556 21.1139 88.2637 21.1777C87.8717 21.2415 87.4388 21.2734 86.9648 21.2734C86.099 21.2734 85.3424 21.1322 84.6953 20.8496C84.0573 20.5579 83.5651 20.0931 83.2188 19.4551C82.8724 18.8171 82.6992 17.9785 82.6992 16.9395V2.55664ZM98.2305 21.2734C97.082 21.2734 96.0521 21.0911 95.1406 20.7266C94.2292 20.3529 93.4544 19.8379 92.8164 19.1816C92.1875 18.5254 91.7044 17.7643 91.3672 16.8984C91.0299 16.0234 90.8613 15.0938 90.8613 14.1094V13.5625C90.8613 12.4414 91.0208 11.416 91.3398 10.4863C91.6589 9.55664 92.1146 8.75 92.707 8.06641C93.3086 7.38281 94.0378 6.85872 94.8945 6.49414C95.7513 6.12044 96.7174 5.93359 97.793 5.93359C98.8411 5.93359 99.7708 6.10677 100.582 6.45312C101.393 6.79948 102.072 7.29167 102.619 7.92969C103.175 8.56771 103.594 9.33333 103.877 10.2266C104.16 11.1107 104.301 12.0951 104.301 13.1797V14.8203H92.543V12.1953H100.432V11.8945C100.432 11.3477 100.331 10.86 100.131 10.4316C99.9395 9.99414 99.6478 9.64779 99.2559 9.39258C98.8639 9.13737 98.3626 9.00977 97.752 9.00977C97.2324 9.00977 96.7858 9.1237 96.4121 9.35156C96.0384 9.57943 95.7331 9.89844 95.4961 10.3086C95.2682 10.7188 95.0951 11.2018 94.9766 11.7578C94.8672 12.3047 94.8125 12.9062 94.8125 13.5625V14.1094C94.8125 14.7018 94.8945 15.2487 95.0586 15.75C95.2318 16.2513 95.4733 16.6842 95.7832 17.0488C96.1022 17.4134 96.485 17.696 96.9316 17.8965C97.3874 18.097 97.9023 18.1973 98.4766 18.1973C99.1875 18.1973 99.8483 18.0605 100.459 17.7871C101.079 17.5046 101.612 17.0807 102.059 16.5156L103.973 18.5938C103.663 19.0404 103.239 19.4688 102.701 19.8789C102.173 20.2891 101.535 20.6263 100.787 20.8906C100.04 21.1458 99.1875 21.2734 98.2305 21.2734ZM110.48 9.43359V21H106.543V6.20703H110.248L110.48 9.43359ZM114.938 6.11133L114.869 9.76172C114.678 9.73438 114.445 9.71159 114.172 9.69336C113.908 9.66602 113.666 9.65234 113.447 9.65234C112.891 9.65234 112.408 9.72526 111.998 9.87109C111.597 10.0078 111.26 10.2129 110.986 10.4863C110.722 10.7598 110.521 11.0924 110.385 11.4844C110.257 11.8763 110.184 12.3229 110.166 12.8242L109.373 12.5781C109.373 11.6211 109.469 10.7415 109.66 9.93945C109.852 9.12826 110.13 8.42188 110.494 7.82031C110.868 7.21875 111.324 6.75391 111.861 6.42578C112.399 6.09766 113.014 5.93359 113.707 5.93359C113.926 5.93359 114.149 5.95182 114.377 5.98828C114.605 6.01562 114.792 6.05664 114.938 6.11133Z" fill="#E3CAA3"/>
</svg>
