<svg width="146" height="25" viewBox="0 0 146 25" fill="none" xmlns="http://www.w3.org/2000/svg">
<path d="M16.2412 19.9395V24H4.39795V19.9395H16.2412ZM6.18652 0.539062V24H0.933594V0.539062H6.18652ZM39.6274 11.7539V12.8013C39.6274 14.5845 39.3803 16.1851 38.8862 17.603C38.4028 19.021 37.7099 20.2295 36.8076 21.2285C35.916 22.2275 34.8525 22.9956 33.6171 23.5327C32.3925 24.0591 31.0336 24.3223 29.5405 24.3223C28.0473 24.3223 26.683 24.0591 25.4477 23.5327C24.2123 22.9956 23.1381 22.2275 22.225 21.2285C21.3227 20.2295 20.6245 19.021 20.1303 17.603C19.6362 16.1851 19.3891 14.5845 19.3891 12.8013V11.7539C19.3891 9.9707 19.6362 8.37012 20.1303 6.95215C20.6245 5.52344 21.3173 4.30957 22.2089 3.31055C23.1113 2.31152 24.1801 1.54883 25.4155 1.02246C26.6508 0.485352 28.0151 0.216797 29.5082 0.216797C31.0014 0.216797 32.3657 0.485352 33.601 1.02246C34.8364 1.54883 35.8998 2.31152 36.7914 3.31055C37.6938 4.30957 38.392 5.52344 38.8862 6.95215C39.3803 8.37012 39.6274 9.9707 39.6274 11.7539ZM34.3261 12.8013V11.7217C34.3261 10.5293 34.2187 9.47656 34.0038 8.56348C33.789 7.63965 33.4775 6.86621 33.0693 6.24316C32.6611 5.62012 32.1562 5.15283 31.5546 4.84131C30.9531 4.51904 30.2709 4.35791 29.5082 4.35791C28.7133 4.35791 28.0204 4.51904 27.4296 4.84131C26.8388 5.15283 26.3393 5.62012 25.9311 6.24316C25.5336 6.86621 25.2275 7.63965 25.0126 8.56348C24.8085 9.47656 24.7065 10.5293 24.7065 11.7217V12.8013C24.7065 13.9829 24.8085 15.0356 25.0126 15.9595C25.2275 16.8726 25.539 17.646 25.9472 18.2798C26.3554 18.9136 26.8549 19.3916 27.4457 19.7139C28.0473 20.0361 28.7455 20.1973 29.5405 20.1973C30.3032 20.1973 30.9799 20.0361 31.5707 19.7139C32.1723 19.3916 32.6772 18.9136 33.0854 18.2798C33.4936 17.646 33.7997 16.8726 34.0038 15.9595C34.2187 15.0356 34.3261 13.9829 34.3261 12.8013ZM58.6469 16.1367H63.8676C63.7816 17.748 63.3412 19.1714 62.5463 20.4067C61.7621 21.6313 60.6718 22.5928 59.2753 23.291C57.8788 23.9785 56.2191 24.3223 54.2963 24.3223C52.7601 24.3223 51.3851 24.0591 50.1713 23.5327C48.9574 23.0063 47.9262 22.2544 47.0775 21.2769C46.2396 20.2886 45.5951 19.1016 45.1439 17.7158C44.7035 16.3193 44.4833 14.7456 44.4833 12.9946V11.5605C44.4833 9.80957 44.7142 8.23584 45.1762 6.83936C45.6381 5.44287 46.2987 4.25049 47.1581 3.26221C48.0175 2.27393 49.0487 1.5166 50.2518 0.990234C51.455 0.463867 52.7977 0.200684 54.2802 0.200684C56.2782 0.200684 57.9647 0.560547 59.3397 1.28027C60.7147 2 61.7782 2.98828 62.5302 4.24512C63.2929 5.50195 63.7494 6.93604 63.8998 8.54736H58.663C58.62 7.63428 58.4481 6.86621 58.1473 6.24316C57.8466 5.60938 57.3846 5.13135 56.7616 4.80908C56.1386 4.48682 55.3114 4.32568 54.2802 4.32568C53.5282 4.32568 52.8676 4.46533 52.2982 4.74463C51.7396 5.02393 51.2723 5.45898 50.8964 6.0498C50.5311 6.64063 50.2572 7.39258 50.0746 8.30566C49.892 9.20801 49.8007 10.2822 49.8007 11.5283V12.9946C49.8007 14.23 49.8812 15.2988 50.0424 16.2012C50.2035 17.1035 50.4613 17.8501 50.8158 18.4409C51.181 19.0317 51.6483 19.4722 52.2177 19.7622C52.787 20.0522 53.4799 20.1973 54.2963 20.1973C55.2308 20.1973 56.0096 20.0522 56.6327 19.7622C57.2557 19.4614 57.7338 19.0103 58.0668 18.4087C58.3998 17.8071 58.5931 17.0498 58.6469 16.1367ZM78.8426 5.00244L72.784 24H67.1766L75.8616 0.539062H79.4066L78.8426 5.00244ZM83.8699 24L77.7952 5.00244L77.1668 0.539062H80.7601L89.4774 24H83.8699ZM83.6121 15.2666V19.3271H71.3821V15.2666H83.6121ZM109.045 19.9395V24H97.2014V19.9395H109.045ZM98.99 0.539062V24H93.7371V0.539062H98.99ZM119.524 0.539062V24H114.287V0.539062H119.524ZM130.809 0.539062L134.934 8.53125L139.059 0.539062H145.053L138.382 12.1729L145.231 24H139.188L134.934 15.8628L130.696 24H124.638L131.502 12.1729L124.815 0.539062H130.809Z" fill="#9BDEAE"/>
</svg>
