<svg width="118" height="18" viewBox="0 0 118 18" fill="none" xmlns="http://www.w3.org/2000/svg">
<path d="M9.53369 0.226562V18H5.88379V0.226562H9.53369ZM15.0024 0.226562V3.09521H0.500488V0.226562H15.0024ZM21.9839 0.226562V18H18.334V0.226562H21.9839ZM28.0864 0.226562H31.187L35.7524 13.2759L40.3179 0.226562H43.4185L36.9976 18H34.5073L28.0864 0.226562ZM26.4141 0.226562H29.5024L30.064 12.9463V18H26.4141V0.226562ZM42.0024 0.226562H45.103V18H41.4409V12.9463L42.0024 0.226562ZM61.2397 15.1436V18H51.7793V15.1436H61.2397ZM52.9756 0.226562V18H49.3135V0.226562H52.9756ZM60.0068 7.46533V10.2485H51.7793V7.46533H60.0068ZM61.2275 0.226562V3.09521H51.7793V0.226562H61.2275ZM75.8018 15.1436V18H66.854V15.1436H75.8018ZM68.0381 0.226562V18H64.376V0.226562H68.0381ZM82.7954 0.226562V18H79.1455V0.226562H82.7954ZM101.691 0.226562V18H98.0288L90.8877 6.08594V18H87.2256V0.226562H90.8877L98.041 12.1528V0.226562H101.691ZM117.803 15.1436V18H108.343V15.1436H117.803ZM109.539 0.226562V18H105.877V0.226562H109.539ZM116.57 7.46533V10.2485H108.343V7.46533H116.57ZM117.791 0.226562V3.09521H108.343V0.226562H117.791Z" fill="#99CAEE"/>
</svg>
